<?xml version="1.0" standalone="no"?>
<!DOCTYPE svg PUBLIC "-//W3C//DTD SVG 20010904//EN"
 "http://www.w3.org/TR/2001/REC-SVG-20010904/DTD/svg10.dtd">
<svg version="1.0" xmlns="http://www.w3.org/2000/svg"
 width="1024.000000pt" height="1024.000000pt" viewBox="0 0 1024.000000 1024.000000"
 preserveAspectRatio="xMidYMid meet">

<g transform="translate(0.000000,1024.000000) scale(0.100000,-0.100000)"
fill="#000000" stroke="none">
<path d="M4072 6480 c0 -14 2 -19 5 -12 2 6 2 18 0 25 -3 6 -5 1 -5 -13z"/>
<path d="M6162 6445 c0 -16 2 -22 5 -12 2 9 2 23 0 30 -3 6 -5 -1 -5 -18z"/>
<path d="M6292 6435 c0 -16 2 -22 5 -12 2 9 2 23 0 30 -3 6 -5 -1 -5 -18z"/>
<path d="M3932 6420 c0 -14 2 -19 5 -12 2 6 2 18 0 25 -3 6 -5 1 -5 -13z"/>
<path d="M4062 6410 c0 -19 2 -27 5 -17 2 9 2 25 0 35 -3 9 -5 1 -5 -18z"/>
<path d="M6172 6370 c0 -14 2 -19 5 -12 2 6 2 18 0 25 -3 6 -5 1 -5 -13z"/>
<path d="M6302 6360 c0 -19 2 -27 5 -17 2 9 2 25 0 35 -3 9 -5 1 -5 -18z"/>
<path d="M4053 6300 c0 -36 2 -50 4 -32 2 17 2 47 0 65 -2 17 -4 3 -4 -33z"/>
<path d="M3916 6258 c-10 -157 -12 -288 -5 -288 6 0 20 372 14 378 -2 2 -6
-39 -9 -90z"/>
<path d="M6183 6245 c0 -44 2 -61 4 -37 2 23 2 59 0 80 -2 20 -4 1 -4 -43z"/>
<path d="M6318 6043 c3 -176 0 -326 -8 -400 -16 -159 -54 -385 -81 -477 -21
-73 -21 -77 -5 -128 28 -90 39 -169 39 -273 0 -182 -46 -320 -165 -492 -16
-24 -26 -43 -23 -43 12 0 169 117 300 225 388 318 687 636 899 955 82 124 142
224 111 185 -8 -11 -43 -62 -76 -114 -114 -177 -272 -376 -289 -366 -4 3 -7
-3 -6 -13 0 -9 -4 -16 -10 -15 -7 1 -15 -9 -18 -23 -4 -15 -11 -22 -18 -18 -6
4 -8 3 -5 -3 9 -14 -53 -10 -80 5 -26 15 -36 15 -28 2 3 -5 2 -10 -4 -10 -13
0 -25 21 -26 44 0 13 -10 22 -28 27 -16 4 -25 3 -21 -2 8 -13 -10 -11 -25 4
-11 9 -12 9 -7 0 5 -9 2 -11 -8 -7 -9 3 -16 10 -16 15 0 5 -11 9 -24 9 -13 0
-27 6 -29 13 -3 6 -6 1 -6 -13 l-1 -25 -19 25 c-11 13 -17 28 -15 32 3 4 -3 5
-12 1 -11 -4 -15 -3 -11 4 5 7 0 9 -14 6 -11 -3 -17 -9 -12 -12 17 -11 23 -39
8 -37 -19 3 -32 16 -15 16 10 0 10 3 0 15 -6 8 -9 19 -5 25 3 5 -1 10 -9 10
-9 0 -16 5 -16 10 0 6 -5 10 -11 10 -5 0 -8 -3 -6 -7 3 -5 1 -17 -4 -28 -7
-18 -8 -18 -8 4 -1 13 -4 21 -8 18 -3 -4 -12 -2 -20 4 -11 10 -11 15 -1 28 12
14 11 14 -5 2 -14 -11 -15 -16 -5 -29 11 -13 10 -14 -11 -7 -13 4 -45 7 -73 8
-27 0 -51 5 -55 10 -3 5 3 7 14 3 14 -4 19 -1 20 14 1 11 -2 20 -7 20 -5 0 -7
6 -4 13 3 8 -2 14 -11 14 -8 0 -15 -3 -16 -6 -11 -76 -14 -82 -30 -48 -15 33
-25 27 -34 -19 -3 -20 -9 -34 -11 -31 -3 3 -1 22 5 44 7 21 23 110 38 198 23
143 26 194 30 475 2 173 0 342 -4 375 -5 37 -7 -50 -5 -222z m232 -896 c0 -7
-10 -13 -21 -14 -21 -2 -21 -1 -3 12 24 18 24 18 24 2z m75 -7 c3 -5 2 -10 -4
-10 -5 0 -13 5 -16 10 -3 6 -2 10 4 10 5 0 13 -4 16 -10z m187 -57 c-6 -3 -9
-10 -5 -16 4 -7 -1 -6 -10 2 -18 14 -23 26 -8 16 5 -3 13 0 16 6 4 5 10 7 14
3 3 -4 0 -9 -7 -11z m-58 -21 c3 -5 -1 -9 -9 -9 -8 0 -12 4 -9 9 3 4 7 8 9 8
2 0 6 -4 9 -8z m42 -14 c4 -7 3 -8 -4 -4 -7 4 -12 2 -12 -5 0 -7 -3 -10 -6 -6
-6 5 3 27 11 27 2 0 7 -5 11 -12z m154 -27 c0 -6 -5 -13 -12 -17 -7 -5 -8 -3
-3 6 6 10 4 12 -9 7 -10 -4 -15 -3 -11 3 8 13 35 13 35 1z m-63 -33 c-3 -8 -6
-5 -6 6 -1 11 2 17 5 13 3 -3 4 -12 1 -19z m33 -1 c0 -2 -10 -12 -22 -23 l-23
-19 19 23 c18 21 26 27 26 19z"/>
<path d="M2591 6264 c0 -11 3 -14 6 -6 3 7 2 16 -1 19 -3 4 -6 -2 -5 -13z"/>
<path d="M4045 5935 c3 -264 6 -302 30 -425 14 -74 27 -142 30 -150 2 -8 4
-19 5 -25 0 -5 14 21 31 59 73 170 193 330 328 438 199 159 393 229 636 229
235 0 430 -62 620 -196 134 -95 304 -303 370 -453 15 -34 30 -61 32 -58 8 8
32 122 48 231 10 70 18 196 20 345 l3 235 -8 -215 c-5 -119 -18 -278 -29 -358
-12 -78 -21 -146 -21 -152 0 -5 -8 -8 -17 -7 -13 0 -18 9 -18 28 0 15 3 31 8
35 16 16 5 26 -23 21 -24 -5 -32 -2 -42 16 -7 12 -11 25 -10 30 1 4 -3 7 -9 7
-5 0 -7 6 -3 13 4 6 4 9 0 5 -5 -4 -30 21 -57 55 -27 34 -57 72 -68 84 -10 12
-17 25 -15 28 2 3 1 3 -3 0 -3 -3 -27 15 -52 38 -91 85 -261 188 -380 228 -98
34 -221 52 -346 51 -150 -1 -192 -8 -329 -54 -250 -83 -493 -303 -626 -566
-33 -64 -37 -65 -15 -3 8 23 10 39 5 36 -6 -3 -10 -14 -11 -23 0 -14 -2 -14
-10 3 -9 19 -9 19 -5 -1 2 -12 0 -27 -4 -34 -4 -6 -15 42 -24 107 -10 65 -20
129 -23 143 -3 14 -8 142 -13 285 l-8 260 3 -290z m2055 -435 c0 -5 -4 -10
-10 -10 -5 0 -10 5 -10 10 0 6 5 10 10 10 6 0 10 -4 10 -10z m30 -90 c0 -5 -2
-10 -4 -10 -3 0 -8 5 -11 10 -3 6 -1 10 4 10 6 0 11 -4 11 -10z"/>
<path d="M2611 6184 c0 -11 3 -14 6 -6 3 7 2 16 -1 19 -3 4 -6 -2 -5 -13z"/>
<path d="M2660 6005 c0 -5 5 -17 10 -25 5 -8 10 -10 10 -5 0 6 -5 17 -10 25
-5 8 -10 11 -10 5z"/>
<path d="M2686 5940 c4 -14 32 -81 62 -150 186 -414 548 -856 1032 -1260 122
-102 405 -320 415 -320 2 0 -9 30 -25 66 -99 219 -143 429 -139 659 2 97 -1
162 -9 185 -44 128 -91 449 -99 678 -3 89 -9 162 -12 162 -9 0 5 -323 20 -440
7 -58 13 -123 13 -145 1 -22 5 -43 9 -46 10 -7 -2 -39 -15 -39 -5 0 -6 5 -3
10 4 6 1 18 -7 27 -7 9 -12 18 -10 20 7 11 0 23 -10 16 -7 -4 -5 6 6 21 10 16
13 25 7 22 -6 -4 -11 0 -11 8 0 9 -4 16 -10 16 -5 0 -7 -8 -4 -17 5 -15 4 -15
-4 -3 -6 8 -8 18 -6 22 7 11 -76 4 -84 -7 -4 -6 -16 -10 -26 -10 -11 0 -20 -8
-22 -17 -1 -10 2 -18 7 -18 6 0 7 -5 3 -11 -5 -8 -9 -8 -14 1 -4 7 -13 9 -19
6 -6 -4 -11 -3 -11 2 0 6 -7 13 -16 16 -10 4 -13 2 -8 -6 5 -8 0 -9 -17 -5
-23 6 -23 5 -5 -8 19 -14 17 -15 -18 -15 -25 0 -35 4 -30 12 4 7 3 8 -5 4 -6
-4 -20 -2 -29 6 -16 12 -16 11 -2 -6 13 -16 12 -20 -3 -31 -9 -6 -14 -14 -11
-17 2 -3 -7 -5 -20 -5 -14 0 -23 3 -20 8 3 5 12 9 20 9 8 0 14 7 14 15 0 9 -9
15 -22 14 -16 0 -18 -2 -8 -6 9 -4 -3 -11 -30 -17 -31 -8 -51 -8 -62 -2 -12 8
-21 7 -30 -2 -11 -11 -9 -12 7 -6 18 7 19 6 5 -12 -11 -15 -11 -16 0 -6 19 16
29 15 26 -4 -3 -19 -26 -35 -39 -27 -5 3 -13 -1 -18 -8 -6 -10 -9 -8 -9 8 0
16 -4 21 -15 17 -8 -4 -21 -2 -28 2 -7 5 -4 1 6 -8 22 -21 19 -22 -18 -8 -23
9 -28 7 -32 -11 -4 -15 -8 -17 -14 -8 -4 7 -26 12 -54 11 -32 -2 -44 1 -39 9
4 8 0 8 -15 0 -11 -7 -37 -12 -56 -13 -39 -1 -45 -12 -15 -30 11 -7 20 -16 20
-21 0 -17 -23 8 -89 96 -131 177 -195 288 -340 597 -12 25 -18 34 -15 20z
m1099 -540 c3 -6 -1 -7 -9 -4 -18 7 -21 14 -7 14 6 0 13 -4 16 -10z m-266 -82
c0 -13 -3 -17 -6 -10 -2 6 -9 10 -14 6 -5 -3 -9 -1 -9 5 0 8 9 14 28 20 1 1 2
-9 1 -21z m121 12 c0 -5 -2 -10 -4 -10 -3 0 -8 5 -11 10 -3 6 -1 10 4 10 6 0
11 -4 11 -10z m-160 -10 c0 -5 -5 -10 -11 -10 -5 0 -7 5 -4 10 3 6 8 10 11 10
2 0 4 -4 4 -10z m487 -52 c-3 -8 -6 -5 -6 6 -1 11 2 17 5 13 3 -3 4 -12 1 -19z
m-723 -16 c3 -5 -1 -9 -9 -9 -8 0 -12 4 -9 9 3 4 7 8 9 8 2 0 6 -4 9 -8z m45
-26 c-3 -3 -11 5 -18 17 -13 21 -12 21 5 5 10 -10 16 -20 13 -22z m688 -18
c-3 -7 -5 -2 -5 12 0 14 2 19 5 13 2 -7 2 -19 0 -25z m-796 -17 c15 7 17 6 13
-6 -4 -8 -11 -15 -16 -15 -6 0 -5 -6 2 -15 7 -8 10 -15 7 -15 -3 0 -16 15 -28
33 -12 17 -16 27 -9 20 9 -8 19 -9 31 -2z"/>
<path d="M7535 5909 c-4 -6 -5 -12 -2 -15 2 -3 7 2 10 11 7 17 1 20 -8 4z"/>
<path d="M7472 5765 c-30 -62 -27 -71 4 -12 14 27 24 51 22 53 -3 2 -14 -17
-26 -41z"/>
<path d="M4994 5785 c-91 -16 -134 -30 -209 -68 -178 -88 -326 -245 -409 -435
-97 -221 -106 -506 -25 -769 53 -171 153 -370 317 -628 107 -169 152 -257 182
-366 31 -113 36 -193 15 -285 -62 -285 -290 -531 -664 -719 l-94 -46 34 -36
c159 -168 512 -395 773 -498 l69 -27 61 32 c99 52 275 172 360 246 150 131
292 329 347 484 48 136 62 235 56 405 -9 260 -52 389 -266 798 -129 245 -153
347 -117 483 33 123 135 253 241 304 106 51 223 50 331 -4 l65 -33 -6 66 c-30
312 -118 558 -272 758 -138 181 -313 293 -528 338 -84 18 -165 18 -261 0z m54
-12 c-21 -2 -38 -8 -38 -12 0 -5 -10 -8 -22 -8 -13 1 -38 -3 -57 -7 -25 -6
-30 -11 -20 -17 10 -6 8 -9 -10 -9 -19 0 -22 -4 -18 -21 5 -18 2 -21 -23 -17
-16 2 -27 1 -24 -4 8 -13 -14 -9 -28 6 -12 11 -17 11 -36 -4 -11 -10 -18 -21
-14 -25 4 -4 -3 -4 -16 -1 -15 5 -24 3 -28 -8 -3 -9 -9 -14 -13 -12 -4 3 -27
-11 -50 -30 -24 -19 -47 -34 -50 -34 -12 0 75 70 109 87 19 10 37 21 40 25 23
30 234 97 300 96 l35 -1 -37 -4z m169 0 c-8 -7 -119 -5 -126 3 -2 2 26 4 64 4
38 0 65 -3 62 -7z m60 -9 c-3 -3 -12 -4 -19 -1 -8 3 -5 6 6 6 11 1 17 -2 13
-5z m88 -24 c13 -5 14 -9 5 -9 -8 0 -24 4 -35 9 -13 5 -14 9 -5 9 8 0 24 -4
35 -9z m-408 -18 c0 -10 -7 -19 -14 -19 -9 0 -10 4 -3 12 5 7 7 15 3 18 -3 4
-1 7 5 7 6 0 10 -8 9 -18z m473 -7 c17 -9 30 -18 30 -21 0 -4 -59 23 -69 32
-10 9 13 3 39 -11z m-922 -255 c-7 -10 -14 -17 -17 -15 -4 4 18 35 25 35 2 0
-1 -9 -8 -20z m1283 -47 c13 -16 12 -17 -3 -4 -10 7 -18 15 -18 17 0 8 8 3 21
-13z m-443 -49 c97 -48 149 -144 139 -255 -20 -222 -295 -308 -440 -138 -88
103 -84 251 9 345 79 78 194 97 292 48z"/>
<path d="M7420 5660 c-11 -22 -18 -40 -15 -40 2 0 14 18 25 40 11 22 18 40 15
40 -2 0 -14 -18 -25 -40z"/>
<path d="M2123 5553 c9 -2 23 -2 30 0 6 3 -1 5 -18 5 -16 0 -22 -2 -12 -5z"/>
<path d="M2208 5553 c23 -2 59 -2 80 0 20 2 1 4 -43 4 -44 0 -61 -2 -37 -4z"/>
<path d="M2038 5543 c12 -2 30 -2 40 0 9 3 -1 5 -23 4 -22 0 -30 -2 -17 -4z"/>
<path d="M2400 5540 c30 -5 71 -8 90 -8 28 1 25 2 -15 8 -27 5 -68 8 -90 8
-35 -1 -33 -2 15 -8z"/>
<path d="M1948 5533 c6 -2 18 -2 25 0 6 3 1 5 -13 5 -14 0 -19 -2 -12 -5z"/>
<path d="M2560 5520 c14 -4 36 -8 50 -8 22 0 22 1 -5 8 -16 4 -39 8 -50 8 -16
0 -15 -2 5 -8z"/>
<path d="M7628 5513 c7 -3 16 -2 19 1 4 3 -2 6 -13 5 -11 0 -14 -3 -6 -6z"/>
<path d="M2683 5494 c36 -11 53 -23 65 -46 9 -18 46 -75 81 -127 35 -53 65
-104 66 -113 2 -24 35 -59 48 -51 6 4 8 0 4 -10 -4 -11 -1 -17 8 -17 8 0 15
-4 15 -8 0 -5 8 -17 18 -28 9 -10 24 -28 32 -39 13 -18 13 -19 0 -9 -8 6 -25
10 -38 9 -20 -1 -22 2 -18 26 3 23 -1 29 -22 36 -31 11 -62 6 -62 -8 0 -6 -5
-7 -10 -4 -6 4 -9 1 -8 -6 2 -7 -3 -13 -9 -14 -7 0 -13 -3 -13 -7 0 -5 0 -11
0 -15 0 -3 9 2 20 12 11 10 21 16 23 14 1 -2 9 -13 17 -23 8 -11 10 -17 3 -13
-6 4 -14 3 -18 -2 -3 -6 -15 -7 -28 -2 -24 9 -77 -5 -77 -21 0 -5 4 -7 9 -4 5
3 11 0 14 -7 9 -23 -34 -12 -53 13 l-18 24 5 -27 c3 -16 10 -24 17 -20 6 3 5
0 -2 -8 -11 -12 -14 -12 -22 1 -5 8 -7 17 -5 20 2 4 -2 7 -10 7 -11 0 -12 -4
-4 -14 6 -7 8 -13 5 -13 -4 0 -2 -8 3 -18 8 -14 6 -18 -10 -19 -11 -1 -17 2
-14 7 3 6 -1 7 -9 4 -8 -3 -12 -12 -9 -20 3 -8 8 -12 11 -9 3 2 12 -4 20 -16
11 -16 12 -23 3 -32 -9 -9 -11 -8 -6 6 7 16 -3 22 -27 18 -5 0 -8 5 -8 13 0 8
-8 13 -17 12 -10 -2 -22 2 -26 8 -5 6 -6 1 -2 -11 5 -18 2 -22 -15 -20 -23 1
-25 8 -7 26 6 7 -2 4 -20 -6 -26 -14 -29 -19 -17 -26 8 -5 22 -6 29 -3 8 3 17
0 21 -6 4 -7 12 -2 21 13 8 13 12 16 9 7 -3 -10 2 -22 12 -28 15 -10 14 -11
-5 -7 -24 5 -36 -13 -27 -40 5 -15 4 -16 -5 -3 -6 8 -8 22 -5 32 9 31 -14 28
-25 -3 -6 -17 -15 -28 -21 -24 -5 3 -10 8 -10 11 0 3 4 3 9 0 5 -3 11 3 14 15
4 16 3 18 -9 8 -8 -6 -14 -7 -14 -2 0 7 -14 6 -40 0 -22 -6 -40 -15 -40 -20 0
-4 -4 -5 -10 -2 -6 3 -7 -1 -4 -9 6 -16 -10 -21 -46 -16 -8 1 -13 0 -10 -2 3
-2 14 -10 24 -18 15 -11 18 -12 12 -2 -6 10 -3 13 9 10 10 -1 20 -9 23 -16 2
-8 -2 -10 -14 -5 -13 5 -15 3 -9 -8 8 -12 6 -12 -9 0 -15 13 -19 13 -28 0 -8
-11 -9 -11 -4 4 3 11 0 17 -9 17 -8 0 -13 -6 -11 -12 1 -7 1 -10 -1 -5 -3 4
-11 7 -19 7 -8 0 -11 6 -7 18 3 11 0 9 -12 -6 -9 -13 -14 -29 -12 -36 6 -16
-9 -15 -40 2 -20 11 -23 10 -23 -5 0 -15 -2 -16 -10 -3 -7 11 -10 11 -10 2 0
-7 -5 -10 -10 -7 -6 4 -8 10 -6 14 3 4 -4 7 -14 8 -11 1 -22 -2 -25 -8 -6 -8
8 -13 28 -10 4 0 7 -4 7 -10 0 -7 -9 -9 -22 -5 -13 3 -27 6 -31 6 -5 0 -5 5
-1 12 4 7 3 8 -5 4 -9 -6 -9 -11 0 -22 6 -8 7 -14 2 -14 -5 0 -15 11 -21 25
-10 22 -14 24 -26 13 -9 -8 -11 -17 -5 -24 5 -7 3 -11 -6 -11 -13 0 -20 16
-16 40 0 4 -4 7 -10 7 -6 0 -8 -9 -4 -21 6 -16 4 -20 -6 -14 -8 5 -5 -2 6 -15
11 -13 15 -20 9 -17 -7 4 -14 -3 -18 -16 -6 -21 -7 -21 -21 -3 -8 10 -12 23
-9 27 3 5 -4 9 -16 9 -12 0 -19 3 -17 8 3 4 -2 14 -11 22 -14 13 -15 12 -8 -5
5 -11 9 -25 9 -32 0 -7 4 -10 8 -8 4 3 14 -8 23 -23 l17 -27 -20 24 c-12 13
-21 20 -21 17 0 -26 -79 65 -172 199 -71 101 -109 165 -175 290 -64 123 -70
118 -7 -6 247 -494 645 -884 1149 -1129 275 -133 638 -254 961 -319 272 -55
746 -123 759 -109 10 10 -61 133 -100 172 -22 23 -130 109 -240 190 -247 184
-496 383 -640 511 -311 277 -602 610 -764 876 -45 75 -58 88 -90 98 -21 6 -45
11 -52 10 -8 0 8 -7 34 -15z m242 -314 c10 -11 16 -20 13 -20 -3 0 -13 9 -23
20 -10 11 -16 20 -13 20 3 0 13 -9 23 -20z m22 -95 c0 -8 -4 -12 -9 -9 -5 3
-6 10 -3 15 9 13 12 11 12 -6z m-153 -110 c3 -9 0 -15 -10 -15 -9 0 -12 -5 -8
-12 4 -6 3 -8 -4 -5 -8 6 -9 23 -3 45 3 8 20 -1 25 -13z m276 -5 c0 -5 -5 -10
-11 -10 -5 0 -7 5 -4 10 3 6 8 10 11 10 2 0 4 -4 4 -10z m-296 -44 c8 3 16 -1
19 -9 6 -15 -4 -16 -35 -2 -10 4 -15 12 -11 18 5 8 8 8 10 0 3 -7 10 -10 17
-7z m-244 -70 c0 -2 -7 -7 -16 -10 -8 -3 -12 -2 -9 4 6 10 25 14 25 6z m-93
-88 c-3 -8 -6 -5 -6 6 -1 11 2 17 5 13 3 -3 4 -12 1 -19z m-184 -28 c-13 -12
-21 -13 -29 -6 -9 8 -8 12 4 17 31 11 43 6 25 -11z m41 -4 c-3 -9 -10 -16 -15
-16 -5 0 -4 9 3 20 14 22 21 20 12 -4z m-99 -6 c3 -5 2 -10 -4 -10 -5 0 -13 5
-16 10 -3 6 -2 10 4 10 5 0 13 -4 16 -10z m-82 -55 c-3 -9 -8 -14 -10 -11 -3
3 -2 9 2 15 9 16 15 13 8 -4z m-38 -7 c5 4 5 1 1 -6 -6 -10 -11 -10 -22 -1 -8
6 -14 14 -14 16 0 3 6 0 13 -6 8 -6 18 -7 22 -3z m37 -42 c7 4 8 2 4 -5 -9
-14 -36 3 -36 23 0 6 5 3 11 -7 6 -9 15 -14 21 -11z m29 -43 c13 -16 12 -17
-3 -4 -10 7 -18 15 -18 17 0 8 8 3 21 -13z m80 -80 c13 -16 12 -17 -3 -4 -10
7 -18 15 -18 17 0 8 8 3 21 -13z"/>
<path d="M7578 5503 c7 -3 16 -2 19 1 4 3 -2 6 -13 5 -11 0 -14 -3 -6 -6z"/>
<path d="M7538 5493 c7 -3 16 -2 19 1 4 3 -2 6 -13 5 -11 0 -14 -3 -6 -6z"/>
<path d="M1718 5483 c7 -3 16 -2 19 1 4 3 -2 6 -13 5 -11 0 -14 -3 -6 -6z"/>
<path d="M1655 5470 c-13 -5 -14 -9 -5 -9 8 0 24 4 35 9 13 5 14 9 5 9 -8 0
-24 -4 -35 -9z"/>
<path d="M3895 5461 c-3 -5 -1 -12 5 -16 5 -3 10 1 10 9 0 18 -6 21 -15 7z"/>
<path d="M7454 5413 c-149 -258 -453 -606 -774 -889 -204 -179 -635 -513 -818
-634 l-23 -15 40 -83 c23 -45 41 -86 41 -91 0 -29 30 -30 181 -5 993 160 1591
426 2049 910 41 44 95 104 119 134 38 48 36 47 -15 -10 -188 -209 -326 -332
-510 -455 -111 -75 -132 -86 -118 -63 4 7 3 8 -5 4 -6 -4 -9 -11 -6 -16 8 -13
-73 -52 -88 -43 -7 4 -21 6 -32 5 -14 -2 -16 0 -7 6 10 7 10 11 -3 22 -13 11
-15 10 -9 -3 4 -12 1 -14 -18 -10 -13 4 -20 2 -15 -3 5 -5 12 -9 15 -9 4 -1
17 -6 30 -13 15 -9 22 -9 22 -2 0 6 5 8 11 4 17 -10 -12 -25 -36 -18 -52 14
-63 25 -51 50 6 13 20 25 31 27 11 2 7 3 -8 2 -15 -1 -31 3 -34 8 -3 6 -1 7 5
3 6 -3 13 -2 16 3 3 5 -1 11 -8 14 -8 3 -17 1 -20 -6 -2 -7 -5 6 -7 28 -1 25
-3 31 -6 17 -3 -13 -9 -20 -16 -15 -6 3 0 -9 13 -27 15 -21 20 -35 13 -37 -7
-3 -11 -10 -9 -16 1 -7 1 -9 -1 -4 -3 4 -10 4 -16 1 -9 -5 -9 -4 -1 5 12 13 7
61 -7 61 -4 0 -11 -5 -15 -11 -4 -8 -9 -7 -15 2 -4 8 -3 19 4 28 10 12 8 13
-15 9 -28 -5 -32 0 -31 39 1 9 -4 10 -18 2 -13 -6 -19 -6 -19 0 0 6 -6 8 -14
5 -11 -4 -14 1 -12 21 2 14 1 23 -2 20 -8 -8 -42 26 -43 44 0 12 -3 11 -9 -4
-5 -11 -9 -14 -9 -6 -1 7 -7 11 -16 7 -8 -3 -15 -1 -15 4 0 5 -8 11 -17 13
-17 4 -17 5 0 6 9 0 17 6 17 12 0 5 -4 8 -9 4 -6 -3 -15 3 -21 12 -8 13 -10
13 -7 3 3 -11 -2 -16 -19 -16 -13 0 -24 4 -24 9 0 5 7 7 15 4 10 -5 14 1 12
23 -2 23 -5 26 -16 17 -12 -10 -14 -8 -8 8 5 14 0 12 -17 -9 l-23 -28 2 25 c2
14 6 30 9 36 4 5 2 12 -3 16 -6 3 -8 12 -5 19 3 7 -2 19 -11 26 -8 7 -15 19
-15 26 0 21 -30 17 -31 -3 -1 -10 -1 -22 0 -26 1 -5 -3 -6 -8 -2 -6 3 -8 12
-4 20 3 9 -1 22 -8 31 -20 24 -19 39 2 52 12 8 19 8 19 2 0 -5 -5 -10 -11 -10
-5 0 -7 -4 -4 -10 3 -5 1 -10 -5 -10 -6 0 -8 -4 -5 -10 13 -22 35 -10 35 20 0
31 -36 74 -53 63 -5 -3 -8 0 -6 6 3 7 9 12 14 12 6 0 16 11 23 25 9 17 21 24
42 24 17 0 30 5 30 11 0 6 -9 8 -22 3 -20 -6 -21 -5 -9 9 7 9 18 14 24 10 5
-3 7 -2 4 4 -8 13 37 56 48 46 4 -5 5 -3 2 4 -4 6 24 48 65 94 62 72 141 177
246 324 34 47 96 155 89 155 -3 0 -17 -21 -33 -47z m-514 -693 c5 9 9 9 14 1
4 -6 2 -11 -4 -11 -6 0 -8 -5 -4 -12 5 -8 0 -7 -11 2 -14 11 -19 12 -22 3 -3
-7 -9 -13 -15 -13 -6 0 -3 9 8 21 12 13 20 16 22 9 3 -9 6 -9 12 0z m-110 -84
c0 -2 -8 -10 -17 -17 -16 -13 -17 -12 -4 4 13 16 21 21 21 13z m190 -66 c-8
-5 -7 -11 4 -23 12 -12 13 -16 2 -20 -7 -3 -13 0 -14 6 0 7 -4 22 -7 35 -6 18
-4 21 10 16 11 -5 13 -9 5 -14z m201 -224 c5 3 9 1 9 -4 0 -21 -26 -19 -27 2
0 11 1 15 4 8 3 -6 9 -10 14 -6z m263 -228 c-2 -3 -18 -11 -34 -17 -18 -6 -28
-6 -25 -1 4 6 14 10 23 10 14 0 14 2 3 9 -10 7 -7 9 12 8 14 -1 23 -5 21 -9z"/>
<path d="M3685 5430 c-4 -6 -12 -7 -18 -4 -7 4 -8 3 -4 -1 13 -15 34 -14 34 1
0 17 -4 18 -12 4z"/>
<path d="M3721 5424 c0 -11 3 -14 6 -6 3 7 2 16 -1 19 -3 4 -6 -2 -5 -13z"/>
<path d="M1591 5380 c0 -8 6 -26 15 -40 l15 -25 -7 25 c-3 14 -10 32 -15 40
-7 13 -8 13 -8 0z"/>
<path d="M3367 5349 c7 -7 15 -10 18 -7 3 3 -2 9 -12 12 -14 6 -15 5 -6 -5z"/>
<path d="M3210 5300 c0 -5 5 -10 11 -10 5 0 7 5 4 10 -3 6 -8 10 -11 10 -2 0
-4 -4 -4 -10z"/>
<path d="M6280 5270 c0 -5 5 -10 10 -10 6 0 10 5 10 10 0 6 -4 10 -10 10 -5 0
-10 -4 -10 -10z"/>
<path d="M6380 5270 c0 -6 7 -10 15 -10 8 0 15 2 15 4 0 2 -7 6 -15 10 -8 3
-15 1 -15 -4z"/>
<path d="M6380 5235 c-7 -9 -8 -15 -2 -15 5 0 12 7 16 15 3 8 4 15 2 15 -2 0
-9 -7 -16 -15z"/>
<path d="M6580 5210 c-9 -6 -10 -10 -3 -10 6 0 15 5 18 10 8 12 4 12 -15 0z"/>
<path d="M6701 5166 c-9 -11 -9 -16 1 -22 7 -4 10 -4 6 1 -4 4 -3 14 3 22 6 7
9 13 6 13 -2 0 -10 -6 -16 -14z"/>
<path d="M6640 5159 c0 -5 5 -7 10 -4 6 3 10 8 10 11 0 2 -4 4 -10 4 -5 0 -10
-5 -10 -11z"/>
<path d="M6886 5108 c-20 -28 -21 -48 -1 -22 8 10 15 14 15 8 0 -5 7 -19 15
-30 14 -17 14 -15 0 14 -9 18 -13 37 -10 42 12 20 -4 9 -19 -12z"/>
<path d="M6855 5110 c3 -5 8 -10 11 -10 2 0 4 5 4 10 0 6 -5 10 -11 10 -5 0
-7 -4 -4 -10z"/>
<path d="M6965 5111 c-3 -5 -1 -12 5 -16 5 -3 10 1 10 9 0 18 -6 21 -15 7z"/>
<path d="M8510 5100 c-6 -11 -8 -20 -6 -20 3 0 10 9 16 20 6 11 8 20 6 20 -3
0 -10 -9 -16 -20z"/>
<path d="M2803 5075 c0 -8 4 -12 9 -9 5 3 6 10 3 15 -9 13 -12 11 -12 -6z"/>
<path d="M2970 5076 c0 -2 7 -7 16 -10 8 -3 12 -2 9 4 -6 10 -25 14 -25 6z"/>
<path d="M8403 4928 c-43 -57 -66 -91 -58 -86 12 7 78 98 72 98 -3 0 -9 -6
-14 -12z"/>
<path d="M2520 4921 c0 -7 -5 -9 -12 -5 -7 5 -8 3 -3 -5 5 -9 10 -10 18 -2 6
6 8 14 4 18 -4 3 -7 1 -7 -6z"/>
<path d="M2406 4865 c4 -8 7 -15 9 -15 2 0 5 7 9 15 3 9 0 15 -9 15 -9 0 -12
-6 -9 -15z"/>
<path d="M2063 4815 c0 -8 4 -12 9 -9 5 3 6 10 3 15 -9 13 -12 11 -12 -6z"/>
<path d="M8319 4813 c-13 -16 -12 -17 4 -4 9 7 17 15 17 17 0 8 -8 3 -21 -13z"/>
<path d="M2050 4760 c8 -5 16 -14 16 -20 4 -31 6 -33 13 -15 8 20 -11 44 -34
45 -5 0 -3 -5 5 -10z"/>
<path d="M7026 4697 c3 -10 9 -15 12 -12 3 3 0 11 -7 18 -10 9 -11 8 -5 -6z"/>
<path d="M7000 4674 c0 -8 5 -12 10 -9 6 4 8 11 5 16 -9 14 -15 11 -15 -7z"/>
<path d="M7054 4558 c-4 -7 -4 -10 1 -6 4 4 15 2 24 -5 14 -11 14 -10 2 6 -16
20 -18 21 -27 5z"/>
<path d="M7110 4496 c0 -2 7 -7 16 -10 8 -3 12 -2 9 4 -6 10 -25 14 -25 6z"/>
<path d="M7167 4474 c-4 -4 -7 -12 -7 -18 0 -6 5 -4 10 4 9 13 11 13 21 0 9
-12 10 -12 7 -1 -5 17 -21 25 -31 15z"/>
<path d="M7280 4380 c0 -5 5 -10 11 -10 5 0 7 5 4 10 -3 6 -8 10 -11 10 -2 0
-4 -4 -4 -10z"/>
<path d="M7321 4304 c0 -11 3 -14 6 -6 3 7 2 16 -1 19 -3 4 -6 -2 -5 -13z"/>
<path d="M7345 4300 c-3 -5 -1 -10 4 -10 6 0 11 5 11 10 0 6 -2 10 -4 10 -3 0
-8 -4 -11 -10z"/>
<path d="M7370 4289 c0 -5 5 -7 10 -4 6 3 10 8 10 11 0 2 -4 4 -10 4 -5 0 -10
-5 -10 -11z"/>
<path d="M2488 3974 c-181 -123 -428 -339 -428 -374 0 -21 135 -151 256 -247
269 -214 554 -349 884 -418 168 -36 456 -45 637 -21 204 27 411 94 602 195
130 69 189 117 197 158 8 41 -2 121 -25 193 -16 54 -18 55 -56 58 -104 7 -485
55 -620 78 -476 80 -930 220 -1277 395 -43 21 -80 39 -82 39 -3 0 -43 -25 -88
-56z"/>
<path d="M7605 3998 c-22 -12 -103 -49 -180 -83 -352 -156 -742 -265 -1293
-360 -73 -13 -135 -25 -138 -28 -3 -2 6 -42 20 -89 26 -89 64 -263 68 -313 3
-26 12 -34 68 -62 208 -103 552 -161 790 -134 436 50 800 228 1138 555 l113
110 -88 89 c-139 140 -399 338 -443 337 -8 -1 -33 -10 -55 -22z m56 -7 c-6
-10 -7 -22 -3 -26 4 -3 3 -5 -3 -4 -5 2 -25 -5 -42 -14 -35 -19 -44 -13 -15 9
15 12 14 13 -10 4 -16 -5 -39 -17 -53 -26 -14 -9 -28 -14 -32 -11 -3 4 24 21
61 38 37 17 69 36 72 40 3 5 12 9 20 9 11 0 12 -4 5 -19z m58 -19 c14 -3 70
-39 81 -52 3 -3 18 -14 35 -24 48 -31 136 -104 208 -173 57 -56 65 -68 55 -81
-9 -11 -9 -14 -1 -9 6 4 14 3 18 -3 3 -5 0 -10 -9 -10 -8 0 -16 -6 -19 -12 -3
-7 -4 3 -2 22 3 39 -27 82 -51 73 -8 -3 -11 -9 -8 -14 3 -5 -2 -9 -10 -9 -9 0
-15 3 -15 8 1 4 1 21 0 37 -1 28 -4 31 -37 32 -39 1 -54 15 -47 43 3 10 0 21
-6 24 -6 4 -11 3 -11 -3 0 -5 -9 -9 -19 -8 -11 0 -19 6 -18 12 1 5 -3 9 -9 8
-7 -1 -14 11 -18 28 -3 17 -10 28 -15 24 -6 -3 -7 -13 -4 -23 4 -13 2 -13 -11
3 -12 15 -15 16 -10 3 4 -13 1 -15 -15 -11 -12 3 -21 10 -21 15 0 5 5 6 10 3
6 -3 10 -4 10 -1 0 2 3 13 7 23 6 16 5 16 -11 4 -15 -12 -17 -12 -14 0 2 9 -5
14 -20 14 -13 0 -27 7 -32 15 -7 10 -10 11 -10 3 0 -7 -6 -13 -14 -13 -8 0
-13 8 -11 18 2 9 4 28 5 42 0 21 2 23 13 10 7 -8 18 -16 26 -18z m432 -359
c13 -16 12 -17 -3 -4 -10 7 -18 15 -18 17 0 8 8 3 21 -13z"/>
<path d="M7615 3970 c3 -5 8 -10 11 -10 2 0 4 5 4 10 0 6 -5 10 -11 10 -5 0
-7 -4 -4 -10z"/>
<path d="M7876 3847 c3 -10 9 -15 12 -12 3 3 0 11 -7 18 -10 9 -11 8 -5 -6z"/>
<path d="M7960 3781 c0 -5 7 -12 16 -15 14 -5 15 -4 4 9 -14 17 -20 19 -20 6z"/>
<path d="M8010 3732 c0 -12 19 -26 26 -19 2 2 -2 10 -11 17 -9 8 -15 8 -15 2z"/>
</g>
</svg>
